<?xml version="1.0" encoding="utf-8" ?>
<svg baseProfile="full" height="174" version="1.1" width="140" xmlns="http://www.w3.org/2000/svg" xmlns:ev="http://www.w3.org/2001/xml-events" xmlns:xlink="http://www.w3.org/1999/xlink"><defs /><rect fill="white" height="100" stroke="black" stroke-width="4" width="100" x="20" y="20" /><circle cx="40.0" cy="20" fill="white" r="3" stroke="black" /><circle cx="40.0" cy="11" fill="none" r="5" stroke="black" /><text font-size="14" text-anchor="middle" x="40.0" y="15">A</text><circle cx="40.0" cy="120" fill="white" r="3" stroke="black" /><circle cx="40.0" cy="129" fill="none" r="5" stroke="black" /><text font-size="14" text-anchor="middle" x="40.0" y="135">A</text><circle cx="60.0" cy="20" fill="white" r="3" stroke="black" /><circle cx="60.0" cy="11" fill="none" r="5" stroke="black" /><text font-size="14" text-anchor="middle" x="60.0" y="15">B</text><circle cx="60.0" cy="120" fill="white" r="3" stroke="black" /><circle cx="60.0" cy="129" fill="none" r="5" stroke="black" /><text font-size="14" text-anchor="middle" x="60.0" y="135">B</text><circle cx="80.0" cy="20" fill="white" r="3" stroke="black" /><circle cx="80.0" cy="11" fill="none" r="5" stroke="black" /><text font-size="14" text-anchor="middle" x="80.0" y="15">C</text><circle cx="80.0" cy="120" fill="white" r="3" stroke="black" /><circle cx="80.0" cy="129" fill="none" r="5" stroke="black" /><text font-size="14" text-anchor="middle" x="80.0" y="135">C</text><circle cx="100.0" cy="20" fill="white" r="3" stroke="black" /><circle cx="100.0" cy="11" fill="none" r="5" stroke="black" /><text font-size="14" text-anchor="middle" x="100.0" y="15">D</text><circle cx="100.0" cy="120" fill="white" r="3" stroke="black" /><circle cx="100.0" cy="129" fill="none" r="5" stroke="black" /><text font-size="14" text-anchor="middle" x="100.0" y="135">D</text><text font-size="14" text-anchor="middle" x="70.0" y="140">MyBlock</text></svg>