<?xml version="1.0" encoding="utf-8" ?>
<svg baseProfile="full" height="250" version="1.1" width="344" xmlns="http://www.w3.org/2000/svg" xmlns:ev="http://www.w3.org/2001/xml-events" xmlns:xlink="http://www.w3.org/1999/xlink"><defs /><rect fill="white" height="160" stroke="black" stroke-width="4" width="200" x="74.0" y="40" /><circle cx="74.0" cy="72.0" fill="white" r="3" stroke="black" /><circle cx="65.0" cy="72.0" fill="none" r="5" stroke="black" /><text font-size="14" text-anchor="end" x="94.0" y="76.66666666666667">P1</text><circle cx="274.0" cy="72.0" fill="white" r="3" stroke="black" /><circle cx="283.0" cy="72.0" fill="none" r="5" stroke="black" /><text font-size="14" text-anchor="start" x="254.0" y="76.66666666666667">P1</text><circle cx="74.0" cy="104.0" fill="white" r="3" stroke="black" /><circle cx="65.0" cy="104.0" fill="none" r="5" stroke="black" /><text font-size="14" text-anchor="end" x="94.0" y="108.66666666666667">P2</text><circle cx="274.0" cy="104.0" fill="white" r="3" stroke="black" /><circle cx="283.0" cy="104.0" fill="none" r="5" stroke="black" /><text font-size="14" text-anchor="start" x="254.0" y="108.66666666666667">P2</text><circle cx="74.0" cy="136.0" fill="white" r="3" stroke="black" /><circle cx="65.0" cy="136.0" fill="none" r="5" stroke="black" /><text font-size="14" text-anchor="end" x="94.0" y="140.66666666666666">P3</text><circle cx="274.0" cy="136.0" fill="white" r="3" stroke="black" /><circle cx="283.0" cy="136.0" fill="none" r="5" stroke="black" /><text font-size="14" text-anchor="start" x="254.0" y="140.66666666666666">P3</text><circle cx="74.0" cy="168.0" fill="white" r="3" stroke="black" /><circle cx="65.0" cy="168.0" fill="none" r="5" stroke="black" /><text font-size="14" text-anchor="end" x="94.0" y="172.66666666666666">P4</text><circle cx="274.0" cy="168.0" fill="white" r="3" stroke="black" /><circle cx="283.0" cy="168.0" fill="none" r="5" stroke="black" /><text font-size="14" text-anchor="start" x="254.0" y="172.66666666666666">P4</text><text font-size="14" text-anchor="middle" x="167.0" y="230.0">MyBlock</text></svg>